<svg xmlns="http://www.w3.org/2000/svg" xmlns:xlink="http://www.w3.org/1999/xlink" width="33.81" height="33.81" viewBox="0 0 33.81 33.81"><defs><path id="dug3a" d="M1238.02 27.19V61h33.8V27.2z"/><path id="dug3c" d="M1268.81 51.67c0 3.5-2.84 6.33-6.33 6.33h-15.15a6.34 6.34 0 0 1-6.33-6.33V36.52c0-3.49 2.84-6.33 6.33-6.33h15.15c3.5 0 6.33 2.84 6.33 6.33zm-6.33-24.48h-15.15a9.34 9.34 0 0 0-9.33 9.33v15.15a9.34 9.34 0 0 0 9.33 9.33h15.15a9.34 9.34 0 0 0 9.33-9.33V36.52a9.34 9.34 0 0 0-9.33-9.33z"/><path id="dug3d" d="M1254.5 49.07a5.58 5.58 0 1 1 .01-11.16 5.58 5.58 0 0 1-.01 11.16zm0-14.07a8.5 8.5 0 0 0 0 17 8.51 8.51 0 0 0 0-17z"/><path id="dug3e" d="M1264.5 33a2.5 2.5 0 0 0-1.77 4.27 2.51 2.51 0 0 0 3.54 0 2.52 2.52 0 0 0 0-3.54 2.5 2.5 0 0 0-1.77-.73z"/><clipPath id="dug3b"><use xlink:href="#dug3a"/></clipPath></defs><g><g transform="translate(-1238 -27.19)"><g><g/><g clip-path="url(#dug3b)"><use fill="#fff" xlink:href="#dug3c"/></g></g><g><use fill="#fff" xlink:href="#dug3d"/></g><g><use fill="#fff" xlink:href="#dug3e"/></g></g></g></svg>