<svg xmlns="http://www.w3.org/2000/svg" xmlns:xlink="http://www.w3.org/1999/xlink" width="39" height="22" viewBox="0 0 39 22"><defs><path id="k323a" d="M1179.8 52.87l-.14-.25c-.68-1.2-1.97-2.69-3.88-4.44l-.04-.04-.02-.02-.02-.02h-.02a23.68 23.68 0 0 1-1.64-1.65c-.42-.53-.52-1.07-.29-1.62.16-.42.77-1.3 1.83-2.63l1.32-1.7c2.34-3.09 3.36-5.05 3.05-5.91l-.13-.2c-.08-.12-.29-.23-.62-.33a3.2 3.2 0 0 0-1.3-.05l-5.85.04a.77.77 0 0 0-.4 0 88 88 0 0 0-.27.07l-.1.05-.08.06a.88.88 0 0 0-.23.2c-.08.1-.15.23-.2.36a32.65 32.65 0 0 1-3.56 6.68 7.27 7.27 0 0 1-1.83 2.04c-.22.17-.4.24-.52.21l-.35-.08a1.32 1.32 0 0 1-.45-.49c-.12-.2-.2-.47-.24-.78a8.84 8.84 0 0 1-.06-1.78c.02-.41.02-.7.02-.84a50.48 50.48 0 0 1 .08-3.07c.02-.35.02-.72.02-1.1 0-.4-.02-.7-.07-.92a3.07 3.07 0 0 0-.21-.64c-.1-.21-.23-.37-.42-.48-.18-.12-.4-.2-.68-.28-.71-.16-1.63-.24-2.74-.26-2.51-.02-4.13.14-4.85.49-.29.14-.54.34-.77.6-.25.3-.28.45-.1.48.8.12 1.38.4 1.72.86l.12.24c.1.18.2.49.29.93a15.3 15.3 0 0 1 .18 3.98c-.07.69-.13 1.23-.2 1.62a3.23 3.23 0 0 1-.51 1.38.35.35 0 0 1-.1.1c-.18.07-.36.1-.55.1-.19 0-.42-.09-.69-.28a4.85 4.85 0 0 1-.84-.77c-.3-.33-.62-.79-.99-1.38-.36-.58-.74-1.28-1.13-2.08l-.33-.59a47.2 47.2 0 0 1-1.77-3.71c-.1-.28-.27-.5-.48-.64l-.1-.06a2.18 2.18 0 0 0-.8-.3l-5.56.04c-.57 0-.95.12-1.16.38l-.08.12a.65.65 0 0 0-.06.32c0 .15.04.33.12.54a65.88 65.88 0 0 0 5.14 9.7 49.92 49.92 0 0 0 4.16 5.46l.5.48c.33.32.81.7 1.44 1.15.63.45 1.33.9 2.1 1.33.76.43 1.65.79 2.66 1.06 1.02.28 2 .39 2.97.33h2.33c.48-.04.84-.18 1.08-.44l.08-.1a2.02 2.02 0 0 0 .22-.92c-.01-.58.03-1.1.13-1.56.1-.46.22-.8.35-1.04a2.52 2.52 0 0 1 .78-.88l.16-.07c.33-.11.71 0 1.15.3.44.32.85.71 1.24 1.17.39.46.85.98 1.4 1.56.53.57 1 1 1.41 1.28l.4.24c.28.16.63.31 1.07.45.43.13.8.16 1.13.1l5.2-.08c.51 0 .91-.09 1.2-.26.28-.16.45-.35.5-.55.06-.2.06-.43.02-.68-.05-.25-.1-.43-.15-.53z"/></defs><g><g clip-path="url(#clip-70E2F404-AE01-475B-9348-3C2AD95D18AB)" transform="translate(-1141 -33)"><use fill="#fff" xlink:href="#k323a"/></g></g></svg>